<?xml version="1.0" standalone="no"?>
<!DOCTYPE svg PUBLIC "-//W3C//DTD SVG 20010904//EN"
 "http://www.w3.org/TR/2001/REC-SVG-20010904/DTD/svg10.dtd">
<svg version="1.0" xmlns="http://www.w3.org/2000/svg"
 width="414.000000pt" height="406.000000pt" viewBox="0 0 828.000000 812.000000"
 preserveAspectRatio="xMidYMid meet">
<metadata>
Created by potrace 1.16, written by Peter Selinger 2001-2019
</metadata>
<g transform="translate(0.000000,812.000000) scale(0.100000,-0.100000)"
fill="#C79F12" stroke="none">
<path d="M1000 8099 c0 -13 7 -89 14 -169 68 -683 83 -1495 40 -2132 l-7 -98
131 0 c128 0 132 1 136 23 3 12 14 112 26 222 66 609 159 1042 273 1270 114
230 290 399 510 492 251 106 553 143 1180 143 l327 0 0 -861 0 -862 -79 114
c-135 194 -248 327 -431 510 -187 187 -362 333 -546 456 -63 42 -114 80 -114
84 0 23 415 199 605 258 105 32 360 95 433 106 l42 7 0 69 0 70 -37 -7 c-636
-110 -1242 -387 -1728 -790 -200 -165 -185 -147 -206 -254 -31 -159 -34 -158
100 -27 66 64 168 155 228 202 103 83 397 285 413 285 16 0 310 -202 412 -284
333 -265 656 -640 867 -1003 l41 -72 -2 -366 -3 -366 -280 212 c-154 116 -284
214 -288 219 -5 4 5 34 21 66 105 209 89 427 -40 550 -166 159 -422 149 -610
-24 l-57 -53 -77 11 c-131 20 -262 -8 -371 -80 -37 -24 -105 -89 -168 -158
l-106 -116 -121 -42 c-141 -50 -289 -119 -336 -159 -57 -48 -96 -143 -136
-334 -13 -62 -26 -113 -28 -115 -1 -1 -37 -18 -78 -39 -41 -20 -119 -72 -174
-115 -122 -96 -117 -93 -259 -137 -271 -83 -450 -219 -502 -381 -13 -41 -16
-85 -13 -225 3 -164 4 -178 29 -224 30 -58 86 -104 166 -136 56 -22 71 -24
383 -27 l325 -3 120 -59 c223 -110 438 -264 620 -445 487 -486 733 -1149 686
-1855 -12 -171 -46 -408 -62 -424 -5 -6 -53 20 -121 66 -709 473 -1235 1191
-1471 2008 -51 174 -100 412 -118 573 l-13 107 -68 0 c-37 0 -68 -4 -68 -9 0
-29 33 -261 51 -356 212 -1142 951 -2133 1980 -2655 192 -97 356 -165 554
-229 196 -64 214 -67 256 -45 46 23 121 75 117 80 -3 2 -49 15 -104 29 -163
42 -291 84 -436 141 -158 62 -368 161 -368 173 0 4 51 42 114 84 353 235 720
598 981 972 l77 110 -5 -525 c-5 -555 -12 -652 -57 -818 -59 -216 -184 -347
-391 -410 -127 -39 -448 -82 -616 -82 l-63 0 0 -121 0 -122 128 7 c645 34
2298 34 3035 0 l147 -7 0 122 0 121 -68 0 c-94 0 -359 26 -460 45 -365 70
-506 209 -574 570 -19 101 -21 157 -25 665 l-5 555 77 -110 c260 -373 629
-738 978 -971 56 -37 106 -71 111 -75 5 -4 -32 -28 -81 -52 -207 -104 -461
-200 -693 -261 -76 -20 -125 -38 -125 -46 0 -6 33 -30 73 -52 l72 -40 128 37
c1103 318 2018 1169 2435 2265 56 145 142 428 134 436 -2 3 -35 -4 -73 -14
l-69 -19 -56 -169 c-97 -293 -199 -519 -347 -764 -160 -267 -312 -461 -542
-691 -179 -179 -351 -323 -539 -448 -98 -66 -120 -77 -125 -64 -15 38 -46 198
-61 307 -20 154 -20 439 1 598 44 343 179 702 374 997 92 140 155 218 269 334
l86 87 91 0 c50 0 130 7 177 15 l85 15 124 -60 c334 -160 468 -168 710 -43
165 85 291 200 351 322 27 55 32 76 32 140 0 89 -22 144 -107 269 -63 92 -367
400 -518 524 -58 48 -114 102 -124 120 -53 92 -307 421 -413 535 -114 123
-259 228 -417 304 -121 58 -235 86 -373 93 -120 6 -142 11 -204 42 -51 25 -99
75 -129 134 -73 142 -71 403 5 670 13 46 22 86 20 89 -8 7 -228 -120 -309
-177 -125 -91 -237 -215 -291 -325 -60 -122 -75 -187 -75 -322 0 -172 48 -334
147 -495 l40 -65 -181 0 c-213 -1 -333 -21 -538 -89 l-128 -43 0 419 0 420 42
71 c22 40 81 131 129 202 267 395 594 720 992 986 l148 98 82 -51 c192 -119
396 -281 579 -457 60 -57 108 -97 108 -90 0 8 -9 60 -20 116 -19 101 -20 102
-72 151 -486 456 -1170 792 -1865 916 l-33 6 0 -70 0 -69 58 -11 c241 -48 525
-135 736 -225 125 -53 290 -134 284 -140 -2 -2 -48 -34 -103 -71 -380 -255
-717 -589 -986 -973 l-79 -114 0 863 0 863 443 -6 c550 -7 730 -27 967 -106
325 -109 540 -326 665 -671 79 -221 167 -697 221 -1207 l17 -163 135 0 135 0
-6 48 c-20 152 -29 542 -24 1012 5 496 14 699 53 1158 9 106 14 195 12 197 -2
3 -148 0 -324 -6 -481 -16 -4209 -23 -5043 -10 -383 6 -749 14 -813 18 l-118
6 0 -24z m4678 -2016 c-87 -212 -111 -403 -67 -536 31 -93 90 -187 179 -280
l79 -84 -69 -33 c-82 -40 -80 -41 -155 71 -235 351 -230 663 16 909 27 28 51
50 53 50 2 0 -14 -43 -36 -97z m-2797 24 c49 -25 70 -43 93 -81 82 -133 18
-357 -147 -513 -65 -60 -189 -135 -203 -121 -3 4 -39 139 -80 300 l-73 293 47
48 c108 110 241 138 363 74z m2935 -237 c20 -111 72 -219 135 -282 53 -53 149
-104 219 -116 l42 -7 -78 -75 c-44 -41 -94 -86 -112 -98 l-32 -24 -76 74
c-140 135 -203 266 -191 397 8 84 71 290 75 246 1 -16 10 -68 18 -115z m-3515
90 l37 -10 77 -311 c43 -170 76 -311 74 -313 -65 -55 -774 -555 -779 -549 -4
4 -78 114 -164 243 l-156 234 24 26 c12 14 138 152 280 307 141 156 278 297
303 314 86 59 214 84 304 59z m998 -769 c175 -132 322 -245 326 -250 4 -8 -1
-8 -17 -2 -58 23 -812 342 -824 349 -10 6 4 20 49 49 34 23 75 55 92 72 16 18
35 29 42 27 6 -3 156 -113 332 -245z m3263 218 c231 -90 411 -240 639 -534 64
-83 124 -163 135 -179 18 -28 18 -29 -1 -23 -11 3 -40 9 -64 12 -42 7 -65 27
-427 381 -389 380 -394 386 -282 343z m-58 -435 c-55 -70 -101 -131 -104 -135
-4 -6 -148 16 -156 24 -1 1 24 108 56 237 33 129 59 237 60 240 0 3 55 -50
121 -116 l122 -122 -99 -128z m-314 261 c0 -17 -74 -312 -80 -318 -8 -9 -229
102 -230 115 0 4 9 10 21 13 28 9 185 116 234 159 37 32 55 43 55 31z m-3060
-244 l495 -208 3 -100 3 -99 -743 -176 c-409 -97 -744 -175 -746 -173 -2 2
101 222 229 489 181 377 236 485 248 481 9 -3 239 -99 511 -214z m-750 70 c-5
-11 -100 -208 -210 -438 -111 -230 -206 -423 -213 -429 -12 -11 -796 -199
-802 -192 -2 2 130 141 293 310 l297 307 320 230 c176 127 321 231 323 231 1
0 -2 -9 -8 -19z m3210 -66 c56 -12 125 -41 280 -122 l207 -106 -54 -221 c-29
-121 -58 -237 -63 -258 l-10 -36 -243 62 c-133 35 -419 107 -634 161 l-393 97
0 145 0 144 44 18 c129 56 340 112 493 131 93 12 282 4 373 -15z m1375 -253
c-6 -6 -405 62 -405 70 0 3 33 50 73 102 l72 96 132 -132 c73 -73 131 -134
128 -136z m-5398 -7 l40 -61 -292 -299 -292 -300 63 430 c35 237 63 431 63
431 1 1 86 -31 190 -70 l188 -71 40 -60z m-560 176 c-2 -11 -35 -233 -73 -495
l-67 -476 -241 0 c-365 0 -449 22 -484 127 -11 32 -9 34 116 175 239 270 518
536 676 647 66 46 81 50 73 22z m5909 -304 l552 -93 63 -53 c115 -96 329 -293
368 -340 l39 -46 -58 -63 -57 -63 -319 82 c-201 51 -341 93 -379 112 -187 93
-443 258 -602 386 -114 92 -194 171 -173 171 8 0 263 -42 566 -93z m-486 -183
c169 -136 365 -264 574 -374 80 -43 127 -75 152 -103 52 -61 97 -159 102 -223
5 -55 5 -55 -45 -103 -79 -76 -212 -117 -413 -127 l-105 -6 -135 125 c-229
212 -480 511 -480 572 0 14 74 330 100 427 l10 36 83 -82 c45 -45 116 -109
157 -142z m-6049 159 c-17 -21 -79 -87 -137 -148 -105 -109 -106 -110 -101
-73 7 44 54 117 102 155 33 26 154 103 163 103 2 0 -10 -17 -27 -37z m3249
-595 l0 -453 -94 -79 c-253 -213 -556 -363 -861 -425 -156 -32 -342 -46 -470
-35 l-110 9 -6 190 c-4 105 -7 346 -8 536 l-1 345 763 181 c419 100 768 182
775 182 9 1 12 -96 12 -451z m1695 282 c336 -84 611 -154 613 -156 2 -1 182
-1197 182 -1211 0 -8 -122 -1 -221 13 -411 57 -794 237 -1136 534 l-83 71 0
456 c0 429 1 455 18 451 9 -3 292 -74 627 -158z m-3382 -387 c4 -87 7 -282 7
-433 l0 -275 -37 45 c-65 81 -316 325 -398 387 -99 75 -254 177 -317 209 -27
13 -48 28 -48 32 0 6 740 189 776 191 7 1 13 -52 17 -156z m6166 -33 c20 -36
31 -72 31 -97 0 -47 -39 -128 -79 -167 l-30 -28 -45 21 c-68 33 -106 82 -106
135 0 53 36 126 100 201 l45 54 27 -31 c15 -17 40 -56 57 -88z m-554 26 c150
-39 199 -56 196 -67 -10 -44 -12 -129 -2 -165 15 -57 64 -121 116 -152 25 -15
45 -30 45 -34 0 -16 -208 -109 -267 -120 -53 -10 -72 -9 -125 6 -73 20 -278
105 -278 114 1 4 18 19 40 34 117 81 148 231 79 387 -21 49 -22 51 -11 51 4
-1 97 -25 207 -54z m-1183 -269 l189 -188 -77 -82 c-42 -45 -113 -131 -157
-190 -66 -87 -83 -105 -89 -90 -4 10 -32 191 -63 403 -30 212 -57 393 -60 404
-2 10 12 -2 32 -25 20 -24 121 -129 225 -232z m-2814 -1382 c-250 -413 -621
-809 -1015 -1085 -64 -44 -117 -79 -118 -78 -1 2 7 59 18 128 16 103 20 176
21 420 0 263 -2 309 -22 424 -48 276 -129 526 -240 739 -20 40 -38 75 -40 78
-1 3 82 9 185 12 204 6 335 25 508 75 252 73 494 197 705 361 l65 50 3 -502 2
-502 -72 -120z m1207 1041 c87 -72 275 -194 390 -253 257 -132 549 -218 818
-242 54 -4 100 -10 102 -13 3 -3 -13 -44 -36 -93 -56 -123 -133 -358 -162
-500 -42 -203 -52 -299 -52 -525 1 -215 10 -323 45 -493 l18 -88 -27 17 c-187
119 -409 303 -601 500 -208 212 -348 391 -497 633 l-83 134 0 494 c0 393 3
493 13 487 6 -5 39 -30 72 -58z"/>
<path d="M908 5987 c-134 -232 -226 -434 -312 -685 -46 -135 -130 -451 -122
-459 3 -3 36 3 73 13 l69 17 28 110 c62 243 180 553 288 757 49 93 50 98 58
210 11 150 11 170 3 170 -5 0 -42 -60 -85 -133z"/>
<path d="M7314 5964 l8 -138 53 -106 c182 -363 316 -800 359 -1171 7 -54 10
-58 77 -119 39 -34 72 -60 75 -57 7 7 -24 260 -47 391 -74 413 -227 830 -439
1201 -39 69 -76 128 -82 131 -8 5 -9 -33 -4 -132z"/>
</g>
</svg>
