<?xml-stylesheet href="TrueMissionStyle.css" type="text/css"?>

<svg width="296" height="203" viewBox="0 0 296 203" fill="none" xmlns="http://www.w3.org/2000/svg">
<g id="TrueFundBlob">
<g id="Group2">
<path id="blobFund" fill-rule="evenodd" clip-rule="evenodd" d="M130.32 7.82316C164.727 8.89403 201.331 1.64007 230.828 12.772C261.3 24.2723 277.866 45.9188 287.87 67.2827C297.653 88.1734 300.32 111.09 286.183 130.981C272.745 149.89 240.57 159.019 213.945 171.3C187.083 183.69 163.548 204.837 130.32 202.872C97.0406 200.904 79.2575 177.891 57.444 162.046C40.7663 149.932 28.3933 136.792 18.9081 121.947C8.69766 105.967 -0.00519586 90.1239 0.495487 72.9175C1.17164 49.681 -6.71611 20.8165 22.2739 6.2809C51.088 -8.16656 93.4375 6.6752 130.32 7.82316Z" fill="url(#paint0_linear)" fill-opacity="0.6"/>
<g id="logoLarge">
<mask id="path-2-inside-1" fill="white">
<path d="M94.9046 31.4135C94.9046 31.6375 95.023 32.9468 95.1415 34.3251C96.292 46.0923 96.5459 60.082 95.8183 71.0566L95.6998 72.745H97.9164C100.082 72.745 100.15 72.7278 100.218 72.3488C100.268 72.142 100.454 70.4192 100.657 68.524C101.774 58.0318 103.348 50.5718 105.277 46.6436C107.206 42.681 110.184 39.7694 113.906 38.1671C118.153 36.3409 123.263 35.7034 133.872 35.7034H139.405V50.5373V65.3884L138.068 63.4243C135.784 60.082 133.872 57.7906 130.776 54.6377C127.612 51.416 124.651 48.9006 121.537 46.7814C120.471 46.0578 119.608 45.4032 119.608 45.3342C119.608 44.938 126.63 41.9057 129.845 40.8892C131.622 40.3379 135.936 39.2525 137.172 39.063L137.882 38.9424V37.7536V36.5476L137.256 36.6682C126.495 38.5634 116.241 43.3357 108.018 50.2789C104.634 53.1216 104.888 52.8115 104.532 54.6549C104.008 57.3943 103.957 57.3771 106.224 55.1201C107.341 54.0175 109.067 52.4497 110.082 51.6399C111.825 50.2099 116.799 46.7298 117.07 46.7298C117.341 46.7298 122.316 50.2099 124.041 51.6227C129.676 56.1883 135.141 62.649 138.711 68.903L139.405 70.1435L139.371 76.4492L139.32 82.7549L134.583 79.1024C131.977 77.1039 129.777 75.4155 129.71 75.3293C129.625 75.2604 129.794 74.7435 130.065 74.1922C131.842 70.5914 131.571 66.8356 129.388 64.7165C126.579 61.9771 122.248 62.1494 119.067 65.13L118.102 66.0431L116.799 65.8536C114.583 65.509 112.366 65.9914 110.522 67.2319C109.896 67.6453 108.745 68.7652 107.679 69.954L105.886 71.9525L103.839 72.6761C101.453 73.5375 98.9485 74.7263 98.1533 75.4155C97.1888 76.2424 96.5289 77.8792 95.8521 81.1698C95.6322 82.238 95.4122 83.1167 95.3784 83.1511C95.3614 83.1684 94.7523 83.4612 94.0586 83.823C93.3648 84.1676 92.045 85.0635 91.1144 85.8043C89.0501 87.4583 89.1347 87.4066 86.7321 88.1647C82.1467 89.5946 79.1179 91.9377 78.2381 94.7288C78.0181 95.4351 77.9673 96.1932 78.0181 98.6052C78.0689 101.431 78.0858 101.672 78.5088 102.464C79.0164 103.464 79.9639 104.256 81.3176 104.808C82.2651 105.187 82.5189 105.221 87.798 105.273L93.2972 105.324L95.3276 106.341C99.1008 108.236 102.739 110.889 105.818 114.008C114.058 122.381 118.221 133.803 117.426 145.967C117.223 148.913 116.647 152.996 116.376 153.272C116.292 153.375 115.48 152.927 114.329 152.135C102.333 143.985 93.4325 131.615 89.4393 117.54C88.5764 114.542 87.7473 110.441 87.4427 107.667L87.2228 105.824H86.0722C85.4461 105.824 84.9216 105.893 84.9216 105.979C84.9216 106.479 85.48 110.476 85.7845 112.112C89.3716 131.788 101.876 148.861 119.287 157.855C122.535 159.526 125.31 160.697 128.661 161.8C131.977 162.903 132.282 162.954 132.992 162.575C133.771 162.179 135.04 161.283 134.972 161.197C134.921 161.162 134.143 160.938 133.212 160.697C130.454 159.974 128.288 159.25 125.835 158.268C123.162 157.2 119.608 155.494 119.608 155.287C119.608 155.219 120.471 154.564 121.537 153.84C127.51 149.792 133.72 143.538 138.136 137.094L139.439 135.199L139.354 144.244C139.27 153.806 139.151 155.477 138.39 158.337C137.392 162.058 135.276 164.315 131.774 165.401C129.625 166.073 124.194 166.813 121.351 166.813H120.285V168.898V171L122.451 170.879C133.364 170.294 161.334 170.294 173.804 170.879L176.291 171V168.898V166.813H175.141C173.55 166.813 169.066 166.365 167.357 166.038C161.182 164.832 158.796 162.437 157.645 156.218C157.324 154.478 157.29 153.513 157.222 144.761L157.138 135.199L158.44 137.094C162.84 143.52 169.083 149.809 174.989 153.823C175.936 154.46 176.782 155.046 176.867 155.115C176.951 155.184 176.325 155.598 175.496 156.011C171.994 157.803 167.696 159.457 163.77 160.508C162.484 160.852 161.655 161.162 161.655 161.3C161.655 161.404 162.214 161.817 162.89 162.196L164.109 162.885L166.275 162.248C184.938 156.769 200.42 142.108 207.476 123.225C208.423 120.727 209.878 115.851 209.743 115.713C209.709 115.662 209.151 115.782 208.508 115.954L207.34 116.282L206.393 119.193C204.751 124.241 203.026 128.135 200.521 132.356C197.814 136.956 195.242 140.299 191.35 144.261C188.322 147.345 185.411 149.826 182.23 151.98C180.572 153.117 180.2 153.306 180.115 153.082C179.862 152.428 179.337 149.671 179.083 147.793C178.745 145.14 178.745 140.23 179.1 137.49C179.845 131.581 182.129 125.396 185.428 120.313C186.985 117.901 188.051 116.557 189.98 114.559L191.435 113.06H192.975C193.821 113.06 195.174 112.939 195.97 112.802L197.408 112.543L199.506 113.577C205.157 116.333 207.425 116.471 211.52 114.318C214.311 112.853 216.443 110.872 217.459 108.77C217.915 107.823 218 107.461 218 106.358C218 104.825 217.628 103.877 216.19 101.724C215.124 100.139 209.98 94.8321 207.425 92.6958C206.443 91.8688 205.496 90.9385 205.327 90.6284C204.43 89.0433 200.132 83.3751 198.339 81.411C196.41 79.2919 193.956 77.4829 191.283 76.1735C189.235 75.1743 187.307 74.6919 184.972 74.5713C182.941 74.4679 182.569 74.3817 181.52 73.8477C180.657 73.4169 179.845 72.5555 179.337 71.539C178.102 69.0925 178.136 64.5959 179.422 59.9958C179.642 59.2033 179.794 58.5142 179.76 58.4625C179.625 58.3419 175.902 60.5299 174.532 61.5119C172.417 63.0797 170.522 65.2161 169.608 67.1113C168.593 69.2131 168.339 70.333 168.339 72.6589C168.339 75.6222 169.151 78.4132 170.826 81.1871L171.503 82.3069H168.44C164.836 82.3241 162.806 82.6687 159.337 83.8403L157.171 84.5811V77.3623V70.1263L157.882 68.903C158.254 68.2139 159.253 66.6461 160.065 65.4228C164.583 58.6175 170.115 53.0182 176.85 48.4354L179.354 46.747L180.741 47.6257C183.99 49.6759 187.442 52.4669 190.538 55.4991C191.554 56.4812 192.366 57.1703 192.366 57.0497C192.366 56.9119 192.213 56.016 192.027 55.0512C191.706 53.3111 191.689 53.2939 190.809 52.4497C182.586 44.5934 171.012 38.8046 159.253 36.6682L158.694 36.5649V37.7709V38.9596L159.676 39.1492C163.753 39.9761 168.559 41.475 172.129 43.0256C174.244 43.9387 177.036 45.3342 176.934 45.4376C176.901 45.4721 176.122 46.0234 175.192 46.6608C168.762 51.0542 163.06 56.8085 158.508 63.4243L157.171 65.3884V50.5201V35.6517L164.667 35.7551C173.973 35.8757 177.019 36.2203 181.029 37.5813C186.528 39.4593 190.166 43.1979 192.281 49.1418C193.618 52.9493 195.107 61.1501 196.02 69.9368L196.308 72.745H198.592H200.877L200.775 71.918C200.437 69.2993 200.284 62.5801 200.369 54.4827C200.454 45.9372 200.606 42.4398 201.266 34.5319C201.418 32.7056 201.503 31.1723 201.469 31.1378C201.435 31.0861 198.965 31.1378 195.987 31.2412C187.848 31.5169 124.769 31.6375 110.657 31.4135C104.177 31.3101 97.9841 31.1723 96.9012 31.1034L94.9046 31V31.4135ZM174.058 66.1464C172.586 69.7989 172.18 73.0896 172.924 75.381C173.449 76.9833 174.447 78.6028 175.953 80.205L177.29 81.6522L176.122 82.2208C174.735 82.9099 174.769 82.9272 173.5 80.9975C169.523 74.9503 169.608 69.5749 173.77 65.3367C174.227 64.8543 174.633 64.4753 174.667 64.4753C174.701 64.4753 174.43 65.2161 174.058 66.1464ZM126.732 65.733C127.561 66.1637 127.916 66.4738 128.305 67.1285C129.693 69.4199 128.61 73.2791 125.818 75.9668C124.718 77.0005 122.62 78.2926 122.383 78.0514C122.332 77.9825 121.723 75.6567 121.03 72.8828L119.794 67.8349L120.59 67.0079C122.417 65.1127 124.667 64.6303 126.732 65.733ZM176.393 69.8161C176.731 71.7285 177.611 73.5892 178.677 74.6746C179.574 75.5877 181.198 76.4664 182.383 76.6732L183.093 76.7938L181.774 78.0859C181.029 78.7923 180.183 79.5676 179.878 79.7743L179.337 80.1878L178.051 78.9129C175.682 76.587 174.616 74.3301 174.819 72.0731C174.955 70.6259 176.021 67.0768 176.088 67.8349C176.105 68.1105 176.258 69.0064 176.393 69.8161ZM116.918 68.2656L117.544 68.4379L118.847 73.796C119.574 76.7248 120.133 79.1541 120.099 79.1885C118.999 80.1361 107.003 88.7504 106.918 88.6471C106.85 88.5781 105.598 86.683 104.143 84.4605L101.504 80.429L101.91 79.9811C102.113 79.7399 104.245 77.3623 106.647 74.6919C109.033 72.0042 111.351 69.5749 111.774 69.2821C113.229 68.2656 115.395 67.8349 116.918 68.2656ZM133.804 81.5144C136.765 83.7886 139.253 85.7354 139.32 85.8216C139.388 85.9594 139.304 85.9594 139.033 85.856C138.051 85.4598 125.294 79.9638 125.09 79.8432C124.921 79.7399 125.158 79.4987 125.92 78.999C126.495 78.6028 127.189 78.0514 127.476 77.7586C127.747 77.4484 128.068 77.2589 128.187 77.2934C128.288 77.3451 130.826 79.2402 133.804 81.5144ZM189.015 77.7586C192.924 79.3091 195.97 81.8934 199.828 86.9587C200.91 88.3886 201.926 89.7669 202.112 90.0426C202.416 90.525 202.416 90.5422 202.095 90.4388C201.909 90.3872 201.418 90.2838 201.012 90.2321C200.301 90.1115 199.912 89.7669 193.787 83.668C187.205 77.1211 187.12 77.0177 189.015 77.7586ZM188.034 85.253C187.103 86.459 186.325 87.51 186.274 87.5789C186.207 87.6823 183.77 87.3032 183.635 87.1654C183.618 87.1482 184.041 85.3047 184.582 83.0822C185.141 80.8597 185.581 78.999 185.598 78.9473C185.598 78.8956 186.528 79.8088 187.645 80.9459L189.709 83.0478L188.034 85.253ZM182.721 80.7563C182.721 81.0492 181.469 86.1317 181.367 86.2351C181.232 86.3901 177.493 84.4777 177.476 84.2538C177.476 84.1848 177.628 84.0815 177.831 84.0298C178.305 83.8747 180.961 82.0313 181.79 81.2904C182.417 80.7391 182.721 80.5496 182.721 80.7563ZM130.945 84.9601L139.32 88.5437L139.371 90.2666L139.422 91.9722L126.85 95.0044C119.93 96.6756 114.261 98.0194 114.228 97.985C114.194 97.9505 115.937 94.1602 118.102 89.5602C121.165 83.065 122.096 81.2043 122.299 81.2732C122.451 81.3249 126.343 82.9788 130.945 84.9601ZM118.255 83.7541C118.17 83.9436 116.563 87.3377 114.701 91.3003C112.823 95.2629 111.216 98.588 111.097 98.6914C110.894 98.8809 97.6288 102.12 97.5272 101.999C97.4934 101.965 99.7269 99.57 102.485 96.6584L107.51 91.3692L112.925 87.4066C115.903 85.2186 118.356 83.4268 118.39 83.4268C118.407 83.4268 118.356 83.5818 118.255 83.7541ZM172.569 84.8912C173.516 85.098 174.684 85.5976 177.307 86.9931L180.809 88.8193L179.895 92.6269C179.405 94.7115 178.914 96.7101 178.829 97.0719L178.66 97.6921L174.549 96.6239C172.298 96.0209 167.459 94.7805 163.821 93.8501L157.171 92.1789V89.6808V87.1999L157.916 86.8897C160.099 85.9249 163.669 84.9601 166.258 84.6328C167.831 84.426 171.029 84.5639 172.569 84.8912ZM195.834 89.2501C195.733 89.3534 188.982 88.1819 188.982 88.0441C188.982 87.9924 189.54 87.1826 190.217 86.2867L191.435 84.6328L193.669 86.907C194.904 88.1647 195.885 89.2156 195.834 89.2501ZM104.498 89.3707L105.175 90.4216L100.234 95.573L95.2938 100.742L96.3597 93.3333C96.9519 89.2501 97.4257 85.9077 97.4257 85.9077C97.4426 85.8905 98.8809 86.4418 100.641 87.1137L103.822 88.3369L104.498 89.3707ZM95.023 86.3384C94.9892 86.5279 94.4308 90.3527 93.7878 94.8666L92.6542 103.067H88.5764C82.4005 103.067 80.9791 102.688 80.3869 100.879C80.2008 100.328 80.2347 100.294 82.3497 97.8644C86.3937 93.2127 91.1144 88.6298 93.7878 86.7175C94.9046 85.9249 95.1584 85.856 95.023 86.3384ZM195.005 91.5759L204.345 93.1782L205.411 94.0913C207.357 95.7453 210.978 99.1393 211.638 99.9491L212.298 100.742L211.316 101.827L210.352 102.912L204.954 101.5C201.553 100.621 199.185 99.8974 198.542 99.57C195.378 97.9678 191.046 95.125 188.356 92.9198C186.427 91.3347 185.073 89.9737 185.428 89.9737C185.564 89.9737 189.878 90.6973 195.005 91.5759ZM186.782 94.7288C189.642 97.0719 192.958 99.2771 196.494 101.172C197.848 101.913 198.643 102.464 199.066 102.947C199.946 103.998 200.707 105.686 200.792 106.789C200.877 107.736 200.877 107.736 200.031 108.563C198.694 109.873 196.443 110.579 193.043 110.751L191.266 110.855L188.982 108.701C185.107 105.049 180.86 99.8974 180.86 98.8464C180.86 98.6052 182.112 93.161 182.552 91.4898L182.721 90.8696L184.125 92.2823C184.887 93.0576 186.088 94.1602 186.782 94.7288ZM84.4309 91.9894C84.1433 92.3512 83.0942 93.4883 82.1128 94.5393C80.3362 96.4172 80.3193 96.4344 80.4039 95.797C80.5223 95.0389 81.3176 93.7812 82.1297 93.1265C82.6881 92.6786 84.7355 91.352 84.8877 91.352C84.9216 91.352 84.7185 91.6448 84.4309 91.9894ZM139.405 102.24V110.045L137.815 111.406C133.534 115.076 128.407 117.66 123.246 118.728C120.607 119.28 117.459 119.521 115.294 119.331L113.432 119.176L113.331 115.903C113.263 114.094 113.212 109.942 113.195 106.668L113.179 100.724L126.089 97.606C133.178 95.8831 139.084 94.4703 139.202 94.4703C139.354 94.4531 139.405 96.1243 139.405 102.24ZM168.085 97.382C173.77 98.8292 178.423 100.035 178.457 100.07C178.491 100.087 181.537 120.692 181.537 120.934C181.537 121.071 179.472 120.951 177.797 120.71C170.843 119.728 164.363 116.626 158.576 111.509L157.171 110.286V102.43C157.171 95.0389 157.188 94.5909 157.476 94.6599C157.628 94.7115 162.417 95.9348 168.085 97.382ZM110.86 104.049C110.928 105.548 110.979 108.908 110.979 111.509V116.247L110.353 115.472C109.253 114.077 105.006 109.873 103.619 108.805C101.943 107.512 99.3208 105.755 98.2548 105.204C97.798 104.98 97.4426 104.721 97.4426 104.652C97.4426 104.549 109.964 101.396 110.573 101.362C110.691 101.345 110.793 102.258 110.86 104.049ZM215.191 104.618C215.53 105.238 215.716 105.858 215.716 106.289C215.716 107.099 215.056 108.494 214.379 109.166L213.871 109.649L213.11 109.287C211.959 108.718 211.316 107.874 211.316 106.961C211.316 106.048 211.926 104.79 213.009 103.498L213.77 102.568L214.227 103.102C214.481 103.395 214.904 104.067 215.191 104.618ZM205.817 104.17C208.355 104.842 209.185 105.135 209.134 105.324C208.965 106.082 208.931 107.547 209.1 108.167C209.354 109.149 210.183 110.252 211.063 110.786C211.486 111.044 211.824 111.303 211.824 111.372C211.824 111.647 208.305 113.25 207.306 113.439C206.41 113.611 206.088 113.594 205.191 113.336C203.956 112.991 200.487 111.527 200.487 111.372C200.504 111.303 200.792 111.044 201.164 110.786C203.144 109.39 203.668 106.806 202.501 104.118C202.146 103.274 202.129 103.24 202.315 103.24C202.383 103.257 203.956 103.67 205.817 104.17ZM185.801 108.805L188.999 112.044L187.696 113.456C186.985 114.232 185.784 115.713 185.039 116.73C183.922 118.229 183.635 118.539 183.533 118.28C183.466 118.108 182.992 114.99 182.467 111.337C181.96 107.685 181.503 104.566 181.452 104.377C181.418 104.205 181.655 104.411 181.994 104.808C182.332 105.221 184.041 107.03 185.801 108.805ZM138.187 132.615C133.957 139.73 127.679 146.553 121.013 151.308C119.93 152.066 119.033 152.669 119.016 152.651C118.999 152.617 119.134 151.635 119.321 150.446C119.591 148.672 119.659 147.414 119.676 143.21C119.676 138.679 119.642 137.887 119.304 135.905C118.492 131.15 117.121 126.843 115.243 123.173C114.904 122.484 114.6 121.881 114.566 121.829C114.549 121.778 115.953 121.674 117.696 121.623C121.148 121.519 123.365 121.192 126.292 120.331C130.556 119.073 134.65 116.937 138.221 114.111L139.32 113.25L139.371 121.898L139.405 130.547L138.187 132.615ZM158.61 114.68C160.082 115.92 163.263 118.022 165.209 119.038C169.557 121.313 174.498 122.794 179.049 123.208C179.963 123.277 180.741 123.38 180.775 123.432C180.826 123.483 180.555 124.19 180.166 125.034C179.219 127.153 177.916 131.202 177.425 133.648C176.714 137.146 176.545 138.8 176.545 142.693C176.562 146.397 176.714 148.258 177.307 151.187L177.611 152.703L177.154 152.41C173.99 150.36 170.234 147.19 166.985 143.796C163.466 140.143 161.097 137.06 158.576 132.89L157.171 130.582V122.071C157.171 115.3 157.222 113.577 157.391 113.68C157.493 113.766 158.051 114.197 158.61 114.68Z"/>
</mask>
<path d="M94.9046 31.4135C94.9046 31.6375 95.023 32.9468 95.1415 34.3251C96.292 46.0923 96.5459 60.082 95.8183 71.0566L95.6998 72.745H97.9164C100.082 72.745 100.15 72.7278 100.218 72.3488C100.268 72.142 100.454 70.4192 100.657 68.524C101.774 58.0318 103.348 50.5718 105.277 46.6436C107.206 42.681 110.184 39.7694 113.906 38.1671C118.153 36.3409 123.263 35.7034 133.872 35.7034H139.405V50.5373V65.3884L138.068 63.4243C135.784 60.082 133.872 57.7906 130.776 54.6377C127.612 51.416 124.651 48.9006 121.537 46.7814C120.471 46.0578 119.608 45.4032 119.608 45.3342C119.608 44.938 126.63 41.9057 129.845 40.8892C131.622 40.3379 135.936 39.2525 137.172 39.063L137.882 38.9424V37.7536V36.5476L137.256 36.6682C126.495 38.5634 116.241 43.3357 108.018 50.2789C104.634 53.1216 104.888 52.8115 104.532 54.6549C104.008 57.3943 103.957 57.3771 106.224 55.1201C107.341 54.0175 109.067 52.4497 110.082 51.6399C111.825 50.2099 116.799 46.7298 117.07 46.7298C117.341 46.7298 122.316 50.2099 124.041 51.6227C129.676 56.1883 135.141 62.649 138.711 68.903L139.405 70.1435L139.371 76.4492L139.32 82.7549L134.583 79.1024C131.977 77.1039 129.777 75.4155 129.71 75.3293C129.625 75.2604 129.794 74.7435 130.065 74.1922C131.842 70.5914 131.571 66.8356 129.388 64.7165C126.579 61.9771 122.248 62.1494 119.067 65.13L118.102 66.0431L116.799 65.8536C114.583 65.509 112.366 65.9914 110.522 67.2319C109.896 67.6453 108.745 68.7652 107.679 69.954L105.886 71.9525L103.839 72.6761C101.453 73.5375 98.9485 74.7263 98.1533 75.4155C97.1888 76.2424 96.5289 77.8792 95.8521 81.1698C95.6322 82.238 95.4122 83.1167 95.3784 83.1511C95.3614 83.1684 94.7523 83.4612 94.0586 83.823C93.3648 84.1676 92.045 85.0635 91.1144 85.8043C89.0501 87.4583 89.1347 87.4066 86.7321 88.1647C82.1467 89.5946 79.1179 91.9377 78.2381 94.7288C78.0181 95.4351 77.9673 96.1932 78.0181 98.6052C78.0689 101.431 78.0858 101.672 78.5088 102.464C79.0164 103.464 79.9639 104.256 81.3176 104.808C82.2651 105.187 82.5189 105.221 87.798 105.273L93.2972 105.324L95.3276 106.341C99.1008 108.236 102.739 110.889 105.818 114.008C114.058 122.381 118.221 133.803 117.426 145.967C117.223 148.913 116.647 152.996 116.376 153.272C116.292 153.375 115.48 152.927 114.329 152.135C102.333 143.985 93.4325 131.615 89.4393 117.54C88.5764 114.542 87.7473 110.441 87.4427 107.667L87.2228 105.824H86.0722C85.4461 105.824 84.9216 105.893 84.9216 105.979C84.9216 106.479 85.48 110.476 85.7845 112.112C89.3716 131.788 101.876 148.861 119.287 157.855C122.535 159.526 125.31 160.697 128.661 161.8C131.977 162.903 132.282 162.954 132.992 162.575C133.771 162.179 135.04 161.283 134.972 161.197C134.921 161.162 134.143 160.938 133.212 160.697C130.454 159.974 128.288 159.25 125.835 158.268C123.162 157.2 119.608 155.494 119.608 155.287C119.608 155.219 120.471 154.564 121.537 153.84C127.51 149.792 133.72 143.538 138.136 137.094L139.439 135.199L139.354 144.244C139.27 153.806 139.151 155.477 138.39 158.337C137.392 162.058 135.276 164.315 131.774 165.401C129.625 166.073 124.194 166.813 121.351 166.813H120.285V168.898V171L122.451 170.879C133.364 170.294 161.334 170.294 173.804 170.879L176.291 171V168.898V166.813H175.141C173.55 166.813 169.066 166.365 167.357 166.038C161.182 164.832 158.796 162.437 157.645 156.218C157.324 154.478 157.29 153.513 157.222 144.761L157.138 135.199L158.44 137.094C162.84 143.52 169.083 149.809 174.989 153.823C175.936 154.46 176.782 155.046 176.867 155.115C176.951 155.184 176.325 155.598 175.496 156.011C171.994 157.803 167.696 159.457 163.77 160.508C162.484 160.852 161.655 161.162 161.655 161.3C161.655 161.404 162.214 161.817 162.89 162.196L164.109 162.885L166.275 162.248C184.938 156.769 200.42 142.108 207.476 123.225C208.423 120.727 209.878 115.851 209.743 115.713C209.709 115.662 209.151 115.782 208.508 115.954L207.34 116.282L206.393 119.193C204.751 124.241 203.026 128.135 200.521 132.356C197.814 136.956 195.242 140.299 191.35 144.261C188.322 147.345 185.411 149.826 182.23 151.98C180.572 153.117 180.2 153.306 180.115 153.082C179.862 152.428 179.337 149.671 179.083 147.793C178.745 145.14 178.745 140.23 179.1 137.49C179.845 131.581 182.129 125.396 185.428 120.313C186.985 117.901 188.051 116.557 189.98 114.559L191.435 113.06H192.975C193.821 113.06 195.174 112.939 195.97 112.802L197.408 112.543L199.506 113.577C205.157 116.333 207.425 116.471 211.52 114.318C214.311 112.853 216.443 110.872 217.459 108.77C217.915 107.823 218 107.461 218 106.358C218 104.825 217.628 103.877 216.19 101.724C215.124 100.139 209.98 94.8321 207.425 92.6958C206.443 91.8688 205.496 90.9385 205.327 90.6284C204.43 89.0433 200.132 83.3751 198.339 81.411C196.41 79.2919 193.956 77.4829 191.283 76.1735C189.235 75.1743 187.307 74.6919 184.972 74.5713C182.941 74.4679 182.569 74.3817 181.52 73.8477C180.657 73.4169 179.845 72.5555 179.337 71.539C178.102 69.0925 178.136 64.5959 179.422 59.9958C179.642 59.2033 179.794 58.5142 179.76 58.4625C179.625 58.3419 175.902 60.5299 174.532 61.5119C172.417 63.0797 170.522 65.2161 169.608 67.1113C168.593 69.2131 168.339 70.333 168.339 72.6589C168.339 75.6222 169.151 78.4132 170.826 81.1871L171.503 82.3069H168.44C164.836 82.3241 162.806 82.6687 159.337 83.8403L157.171 84.5811V77.3623V70.1263L157.882 68.903C158.254 68.2139 159.253 66.6461 160.065 65.4228C164.583 58.6175 170.115 53.0182 176.85 48.4354L179.354 46.747L180.741 47.6257C183.99 49.6759 187.442 52.4669 190.538 55.4991C191.554 56.4812 192.366 57.1703 192.366 57.0497C192.366 56.9119 192.213 56.016 192.027 55.0512C191.706 53.3111 191.689 53.2939 190.809 52.4497C182.586 44.5934 171.012 38.8046 159.253 36.6682L158.694 36.5649V37.7709V38.9596L159.676 39.1492C163.753 39.9761 168.559 41.475 172.129 43.0256C174.244 43.9387 177.036 45.3342 176.934 45.4376C176.901 45.4721 176.122 46.0234 175.192 46.6608C168.762 51.0542 163.06 56.8085 158.508 63.4243L157.171 65.3884V50.5201V35.6517L164.667 35.7551C173.973 35.8757 177.019 36.2203 181.029 37.5813C186.528 39.4593 190.166 43.1979 192.281 49.1418C193.618 52.9493 195.107 61.1501 196.02 69.9368L196.308 72.745H198.592H200.877L200.775 71.918C200.437 69.2993 200.284 62.5801 200.369 54.4827C200.454 45.9372 200.606 42.4398 201.266 34.5319C201.418 32.7056 201.503 31.1723 201.469 31.1378C201.435 31.0861 198.965 31.1378 195.987 31.2412C187.848 31.5169 124.769 31.6375 110.657 31.4135C104.177 31.3101 97.9841 31.1723 96.9012 31.1034L94.9046 31V31.4135ZM174.058 66.1464C172.586 69.7989 172.18 73.0896 172.924 75.381C173.449 76.9833 174.447 78.6028 175.953 80.205L177.29 81.6522L176.122 82.2208C174.735 82.9099 174.769 82.9272 173.5 80.9975C169.523 74.9503 169.608 69.5749 173.77 65.3367C174.227 64.8543 174.633 64.4753 174.667 64.4753C174.701 64.4753 174.43 65.2161 174.058 66.1464ZM126.732 65.733C127.561 66.1637 127.916 66.4738 128.305 67.1285C129.693 69.4199 128.61 73.2791 125.818 75.9668C124.718 77.0005 122.62 78.2926 122.383 78.0514C122.332 77.9825 121.723 75.6567 121.03 72.8828L119.794 67.8349L120.59 67.0079C122.417 65.1127 124.667 64.6303 126.732 65.733ZM176.393 69.8161C176.731 71.7285 177.611 73.5892 178.677 74.6746C179.574 75.5877 181.198 76.4664 182.383 76.6732L183.093 76.7938L181.774 78.0859C181.029 78.7923 180.183 79.5676 179.878 79.7743L179.337 80.1878L178.051 78.9129C175.682 76.587 174.616 74.3301 174.819 72.0731C174.955 70.6259 176.021 67.0768 176.088 67.8349C176.105 68.1105 176.258 69.0064 176.393 69.8161ZM116.918 68.2656L117.544 68.4379L118.847 73.796C119.574 76.7248 120.133 79.1541 120.099 79.1885C118.999 80.1361 107.003 88.7504 106.918 88.6471C106.85 88.5781 105.598 86.683 104.143 84.4605L101.504 80.429L101.91 79.9811C102.113 79.7399 104.245 77.3623 106.647 74.6919C109.033 72.0042 111.351 69.5749 111.774 69.2821C113.229 68.2656 115.395 67.8349 116.918 68.2656ZM133.804 81.5144C136.765 83.7886 139.253 85.7354 139.32 85.8216C139.388 85.9594 139.304 85.9594 139.033 85.856C138.051 85.4598 125.294 79.9638 125.09 79.8432C124.921 79.7399 125.158 79.4987 125.92 78.999C126.495 78.6028 127.189 78.0514 127.476 77.7586C127.747 77.4484 128.068 77.2589 128.187 77.2934C128.288 77.3451 130.826 79.2402 133.804 81.5144ZM189.015 77.7586C192.924 79.3091 195.97 81.8934 199.828 86.9587C200.91 88.3886 201.926 89.7669 202.112 90.0426C202.416 90.525 202.416 90.5422 202.095 90.4388C201.909 90.3872 201.418 90.2838 201.012 90.2321C200.301 90.1115 199.912 89.7669 193.787 83.668C187.205 77.1211 187.12 77.0177 189.015 77.7586ZM188.034 85.253C187.103 86.459 186.325 87.51 186.274 87.5789C186.207 87.6823 183.77 87.3032 183.635 87.1654C183.618 87.1482 184.041 85.3047 184.582 83.0822C185.141 80.8597 185.581 78.999 185.598 78.9473C185.598 78.8956 186.528 79.8088 187.645 80.9459L189.709 83.0478L188.034 85.253ZM182.721 80.7563C182.721 81.0492 181.469 86.1317 181.367 86.2351C181.232 86.3901 177.493 84.4777 177.476 84.2538C177.476 84.1848 177.628 84.0815 177.831 84.0298C178.305 83.8747 180.961 82.0313 181.79 81.2904C182.417 80.7391 182.721 80.5496 182.721 80.7563ZM130.945 84.9601L139.32 88.5437L139.371 90.2666L139.422 91.9722L126.85 95.0044C119.93 96.6756 114.261 98.0194 114.228 97.985C114.194 97.9505 115.937 94.1602 118.102 89.5602C121.165 83.065 122.096 81.2043 122.299 81.2732C122.451 81.3249 126.343 82.9788 130.945 84.9601ZM118.255 83.7541C118.17 83.9436 116.563 87.3377 114.701 91.3003C112.823 95.2629 111.216 98.588 111.097 98.6914C110.894 98.8809 97.6288 102.12 97.5272 101.999C97.4934 101.965 99.7269 99.57 102.485 96.6584L107.51 91.3692L112.925 87.4066C115.903 85.2186 118.356 83.4268 118.39 83.4268C118.407 83.4268 118.356 83.5818 118.255 83.7541ZM172.569 84.8912C173.516 85.098 174.684 85.5976 177.307 86.9931L180.809 88.8193L179.895 92.6269C179.405 94.7115 178.914 96.7101 178.829 97.0719L178.66 97.6921L174.549 96.6239C172.298 96.0209 167.459 94.7805 163.821 93.8501L157.171 92.1789V89.6808V87.1999L157.916 86.8897C160.099 85.9249 163.669 84.9601 166.258 84.6328C167.831 84.426 171.029 84.5639 172.569 84.8912ZM195.834 89.2501C195.733 89.3534 188.982 88.1819 188.982 88.0441C188.982 87.9924 189.54 87.1826 190.217 86.2867L191.435 84.6328L193.669 86.907C194.904 88.1647 195.885 89.2156 195.834 89.2501ZM104.498 89.3707L105.175 90.4216L100.234 95.573L95.2938 100.742L96.3597 93.3333C96.9519 89.2501 97.4257 85.9077 97.4257 85.9077C97.4426 85.8905 98.8809 86.4418 100.641 87.1137L103.822 88.3369L104.498 89.3707ZM95.023 86.3384C94.9892 86.5279 94.4308 90.3527 93.7878 94.8666L92.6542 103.067H88.5764C82.4005 103.067 80.9791 102.688 80.3869 100.879C80.2008 100.328 80.2347 100.294 82.3497 97.8644C86.3937 93.2127 91.1144 88.6298 93.7878 86.7175C94.9046 85.9249 95.1584 85.856 95.023 86.3384ZM195.005 91.5759L204.345 93.1782L205.411 94.0913C207.357 95.7453 210.978 99.1393 211.638 99.9491L212.298 100.742L211.316 101.827L210.352 102.912L204.954 101.5C201.553 100.621 199.185 99.8974 198.542 99.57C195.378 97.9678 191.046 95.125 188.356 92.9198C186.427 91.3347 185.073 89.9737 185.428 89.9737C185.564 89.9737 189.878 90.6973 195.005 91.5759ZM186.782 94.7288C189.642 97.0719 192.958 99.2771 196.494 101.172C197.848 101.913 198.643 102.464 199.066 102.947C199.946 103.998 200.707 105.686 200.792 106.789C200.877 107.736 200.877 107.736 200.031 108.563C198.694 109.873 196.443 110.579 193.043 110.751L191.266 110.855L188.982 108.701C185.107 105.049 180.86 99.8974 180.86 98.8464C180.86 98.6052 182.112 93.161 182.552 91.4898L182.721 90.8696L184.125 92.2823C184.887 93.0576 186.088 94.1602 186.782 94.7288ZM84.4309 91.9894C84.1433 92.3512 83.0942 93.4883 82.1128 94.5393C80.3362 96.4172 80.3193 96.4344 80.4039 95.797C80.5223 95.0389 81.3176 93.7812 82.1297 93.1265C82.6881 92.6786 84.7355 91.352 84.8877 91.352C84.9216 91.352 84.7185 91.6448 84.4309 91.9894ZM139.405 102.24V110.045L137.815 111.406C133.534 115.076 128.407 117.66 123.246 118.728C120.607 119.28 117.459 119.521 115.294 119.331L113.432 119.176L113.331 115.903C113.263 114.094 113.212 109.942 113.195 106.668L113.179 100.724L126.089 97.606C133.178 95.8831 139.084 94.4703 139.202 94.4703C139.354 94.4531 139.405 96.1243 139.405 102.24ZM168.085 97.382C173.77 98.8292 178.423 100.035 178.457 100.07C178.491 100.087 181.537 120.692 181.537 120.934C181.537 121.071 179.472 120.951 177.797 120.71C170.843 119.728 164.363 116.626 158.576 111.509L157.171 110.286V102.43C157.171 95.0389 157.188 94.5909 157.476 94.6599C157.628 94.7115 162.417 95.9348 168.085 97.382ZM110.86 104.049C110.928 105.548 110.979 108.908 110.979 111.509V116.247L110.353 115.472C109.253 114.077 105.006 109.873 103.619 108.805C101.943 107.512 99.3208 105.755 98.2548 105.204C97.798 104.98 97.4426 104.721 97.4426 104.652C97.4426 104.549 109.964 101.396 110.573 101.362C110.691 101.345 110.793 102.258 110.86 104.049ZM215.191 104.618C215.53 105.238 215.716 105.858 215.716 106.289C215.716 107.099 215.056 108.494 214.379 109.166L213.871 109.649L213.11 109.287C211.959 108.718 211.316 107.874 211.316 106.961C211.316 106.048 211.926 104.79 213.009 103.498L213.77 102.568L214.227 103.102C214.481 103.395 214.904 104.067 215.191 104.618ZM205.817 104.17C208.355 104.842 209.185 105.135 209.134 105.324C208.965 106.082 208.931 107.547 209.1 108.167C209.354 109.149 210.183 110.252 211.063 110.786C211.486 111.044 211.824 111.303 211.824 111.372C211.824 111.647 208.305 113.25 207.306 113.439C206.41 113.611 206.088 113.594 205.191 113.336C203.956 112.991 200.487 111.527 200.487 111.372C200.504 111.303 200.792 111.044 201.164 110.786C203.144 109.39 203.668 106.806 202.501 104.118C202.146 103.274 202.129 103.24 202.315 103.24C202.383 103.257 203.956 103.67 205.817 104.17ZM185.801 108.805L188.999 112.044L187.696 113.456C186.985 114.232 185.784 115.713 185.039 116.73C183.922 118.229 183.635 118.539 183.533 118.28C183.466 118.108 182.992 114.99 182.467 111.337C181.96 107.685 181.503 104.566 181.452 104.377C181.418 104.205 181.655 104.411 181.994 104.808C182.332 105.221 184.041 107.03 185.801 108.805ZM138.187 132.615C133.957 139.73 127.679 146.553 121.013 151.308C119.93 152.066 119.033 152.669 119.016 152.651C118.999 152.617 119.134 151.635 119.321 150.446C119.591 148.672 119.659 147.414 119.676 143.21C119.676 138.679 119.642 137.887 119.304 135.905C118.492 131.15 117.121 126.843 115.243 123.173C114.904 122.484 114.6 121.881 114.566 121.829C114.549 121.778 115.953 121.674 117.696 121.623C121.148 121.519 123.365 121.192 126.292 120.331C130.556 119.073 134.65 116.937 138.221 114.111L139.32 113.25L139.371 121.898L139.405 130.547L138.187 132.615ZM158.61 114.68C160.082 115.92 163.263 118.022 165.209 119.038C169.557 121.313 174.498 122.794 179.049 123.208C179.963 123.277 180.741 123.38 180.775 123.432C180.826 123.483 180.555 124.19 180.166 125.034C179.219 127.153 177.916 131.202 177.425 133.648C176.714 137.146 176.545 138.8 176.545 142.693C176.562 146.397 176.714 148.258 177.307 151.187L177.611 152.703L177.154 152.41C173.99 150.36 170.234 147.19 166.985 143.796C163.466 140.143 161.097 137.06 158.576 132.89L157.171 130.582V122.071C157.171 115.3 157.222 113.577 157.391 113.68C157.493 113.766 158.051 114.197 158.61 114.68Z" fill="#C79F12" stroke="black" stroke-width="2" mask="url(#path-2-inside-1)"/>
</g>
</g>
</g>
<defs>
<linearGradient id="paint0_linear" x1="2.37531" y1="90.5328" x2="296.431" y2="108.724" gradientUnits="userSpaceOnUse">
<stop offset="0.0134746" stop-color="#9208FE"/>
<stop offset="1" stop-color="#00F6FF"/>
</linearGradient>
</defs>
</svg>
