<?xml-stylesheet href="TrueMissionStyle.css" type="text/css"?>

<svg width="296" height="203" viewBox="0 0 296 203" fill="none" xmlns="http://www.w3.org/2000/svg">
<g id="Twitter">
<g id="Group1">
<g id="blobTwitter">
<path id="Vector" d="M115.426 193.546C27.1855 226.266 10.4279 166.244 13.0793 132.143C-13.7767 112.759 4.80813 69.4845 32.0921 45.0464L72.9355 4.65495C89.8727 -7.82378 166.026 7.59612 226.944 18.0336C303.09 31.0805 252.296 48.3179 287.009 144.676C327.25 256.378 225.728 152.645 115.426 193.546Z" fill="url(#paint0_linear)" fill-opacity="0.6"/>
</g>
<g id="undraw tweetstorm 49e8 1">
<path id="Vector 2" d="M198.172 107.097L148.663 96.7862V177.469L198.172 166.264V107.097Z" fill="#E0E0E0"/>
<path id="Vector 3" opacity="0.1" d="M198.172 107.097L148.663 96.7862V177.469L198.172 166.264V107.097Z" fill="black"/>
<path id="Vector 4" d="M99.1543 107.097L148.663 96.7862V177.469L99.1543 166.488V107.097Z" fill="#E0E0E0"/>
<path id="Vector 5" opacity="0.17" d="M99.1543 106.739L148.663 96.4306V177.469L99.1543 166.488V106.739Z" fill="black"/>
<path id="Vector 6" d="M74.1646 89.9714L99.5675 107.452L149.074 97.1436L123.933 78.7659L74.1646 89.9714Z" fill="#E0E0E0"/>
<path id="Vector 7" opacity="0.05" d="M73.7534 89.6158L99.7736 107.452L149.283 97.1436L123.52 78.4084L73.7534 89.6158Z" fill="#141313"/>
<path id="Vector 8" d="M99.1543 107.097V166.488L148.663 177.469L149.332 118.526L99.1543 107.097Z" fill="#2E2828"/>
<path id="Vector 9" d="M198.172 166.264L148.663 177.469V118.526L198.172 107.097V166.264Z" fill="#2E2828"/>
<path id="bird" d="M127.953 106.167L129.871 105.836C129.871 105.836 128.259 107.396 127.953 107.495C127.924 107.826 127.924 108.159 127.953 108.491C124.268 122.167 110.677 116.126 110.677 116.126C115.629 116.225 116.051 114.467 116.051 114.467C113.172 114.102 112.596 112.475 112.596 112.475C112.854 112.593 113.154 112.624 113.437 112.563C113.72 112.502 113.967 112.352 114.131 112.144C111.021 111.447 111.443 108.824 111.443 108.824C111.981 109.228 112.824 109.388 113.325 109.454C112.979 109.089 110.053 106.068 111.826 104.508C111.826 104.508 113.976 107.828 119.62 108.127L120.003 108.06C119.938 107.822 119.912 107.576 119.926 107.331C119.926 106.407 120.351 105.52 121.107 104.866C121.862 104.213 122.888 103.846 123.957 103.846C126.645 103.846 127.228 105.173 127.228 105.173L129.147 104.177C129.105 104.175 128.913 105.836 127.953 106.167Z" fill="#00ACED"/>
<path id="bird2" d="M164.841 50.251L166.596 49.5216C166.596 49.5216 165.488 51.3703 165.22 51.532C165.286 51.8576 165.382 52.1784 165.504 52.4917C165.861 66.457 151.04 63.5396 151.04 63.5396C155.839 62.5776 155.744 60.7918 155.744 60.7918C152.865 61.0544 151.846 59.6118 151.846 59.6118C152.129 59.6727 152.428 59.6399 152.685 59.5199C152.94 59.3999 153.136 59.2013 153.232 58.9632C150.035 58.9632 149.694 56.3367 149.694 56.3367C150.325 56.6054 151.187 56.5851 151.687 56.5387C151.25 56.2599 147.575 53.9727 148.831 52.0937C148.831 52.0937 151.853 54.8334 157.374 53.9121L157.725 53.7666C157.594 53.5503 157.499 53.319 157.443 53.0797C157.312 52.6385 157.282 52.1795 157.356 51.7286C157.431 51.2777 157.607 50.8439 157.876 50.4519C158.144 50.06 158.499 49.7176 158.919 49.4442C159.341 49.1709 159.82 48.972 160.331 48.8589C162.92 48.2851 163.855 49.4408 163.855 49.4408L165.42 48.071C165.381 48.0851 165.67 49.7257 164.841 50.251Z" fill="#00ACED"/>
<path id="bird3" d="M84.5684 60.8887L86.4777 60.5594C86.4777 60.5594 84.8743 62.1111 84.5684 62.2101C84.5397 62.5396 84.5397 62.8708 84.5684 63.2002C80.9021 76.8037 67.3838 70.7953 67.3838 70.7953C72.3097 70.8943 72.7303 69.1445 72.7303 69.1445C69.8654 68.7809 69.2929 67.1625 69.2929 67.1625C69.5493 67.282 69.8482 67.3144 70.1309 67.254C70.4137 67.193 70.6598 67.0429 70.8212 66.8331C67.7203 66.1419 68.1409 63.5396 68.1409 63.5396C68.676 63.9437 69.5149 64.1013 70.0103 64.1679C69.6668 63.8043 66.7645 60.7999 68.5218 59.2481C68.5218 59.2481 70.6599 62.5495 76.2751 62.8465L76.6559 62.7799C76.5908 62.542 76.5651 62.2967 76.5787 62.0525C76.5795 61.5969 76.6832 61.1458 76.8853 60.7249C77.0874 60.3041 77.3834 59.9219 77.7567 59.6C78.1299 59.2782 78.5727 59.0232 79.0595 58.8494C79.547 58.6756 80.0686 58.5866 80.5963 58.5874C83.2694 58.5874 83.8417 59.9088 83.8417 59.9088L85.7509 58.9188C85.7063 58.9168 85.517 60.5675 84.5684 60.8887Z" fill="#00ACED"/>
<path id="bird4" d="M254.274 31.5334L257.389 30.994C257.389 30.994 254.772 33.5256 254.274 33.6873C254.228 34.2253 254.228 34.7656 254.274 35.3036C248.292 57.4984 226.233 47.6931 226.233 47.6931C234.269 47.8547 234.956 44.9998 234.956 44.9998C230.282 44.4078 229.348 41.767 229.348 41.767C229.767 41.9579 230.253 42.0083 230.712 41.9088C231.172 41.8093 231.573 41.5668 231.839 41.2276C226.792 40.0962 227.478 35.8411 227.478 35.8411C228.35 36.4876 229.722 36.7563 230.531 36.8655C229.97 36.2735 225.235 31.3698 228.1 28.8381C228.1 28.8381 231.589 34.2247 240.747 34.7096L241.371 34.6025C241.265 34.2142 241.223 33.8149 241.246 33.4165C241.246 31.9161 241.936 30.4771 243.163 29.4162C244.39 28.3553 246.054 27.7592 247.789 27.7592C252.15 27.7592 253.085 29.913 253.085 29.913L256.2 28.2967C256.144 28.3007 255.833 30.9859 254.274 31.5334Z" fill="#00ACED"/>
<path id="bird5" d="M203.365 27.0925L204.655 26.8702C204.655 26.8702 203.571 27.9188 203.365 27.9855C203.346 28.2082 203.346 28.4317 203.365 28.6543C200.888 37.8474 191.753 33.7863 191.753 33.7863C195.084 33.8529 195.366 32.671 195.366 32.671C193.431 32.4265 193.043 31.3314 193.043 31.3314C193.217 31.4109 193.418 31.4323 193.609 31.3913C193.8 31.3502 193.966 31.2498 194.076 31.1092C191.987 30.6404 192.27 28.8867 192.27 28.8867C192.642 29.1194 193.077 29.2655 193.534 29.311C193.3 29.0665 191.34 27.0359 192.527 25.9873C192.527 25.9873 193.971 28.2098 197.766 28.4118L198.023 28.3674C197.979 28.2067 197.962 28.0413 197.972 27.8764C197.971 27.5684 198.041 27.2633 198.177 26.9786C198.312 26.6939 198.512 26.4351 198.764 26.2173C199.016 25.9994 199.315 25.8265 199.644 25.7087C199.973 25.5909 200.326 25.5304 200.682 25.5307C202.488 25.5307 202.877 26.4237 202.877 26.4237L204.166 25.755C204.138 25.7529 204.01 26.8702 203.365 27.0925Z" fill="#00ACED"/>
<path id="bird6" opacity="0.3" d="M144.789 71.7144L146.079 71.4921C146.079 71.4921 144.995 72.5407 144.789 72.6074C144.77 72.8303 144.77 73.0539 144.789 73.2762C142.312 82.4691 133.177 78.4084 133.177 78.4084C136.507 78.4751 136.79 77.2926 136.79 77.2926C134.855 77.0485 134.467 75.9531 134.467 75.9531C134.641 76.0328 134.842 76.054 135.033 76.0129C135.224 75.9718 135.39 75.8716 135.5 75.7308C133.411 75.2626 133.694 73.5084 133.694 73.5084C134.066 73.7413 134.501 73.8877 134.958 73.9331C134.725 73.6884 132.764 71.6578 133.951 70.6091C133.951 70.6091 135.395 72.8316 139.19 73.0339L139.447 72.9891C139.403 72.8284 139.386 72.6634 139.396 72.4984C139.396 71.877 139.681 71.2816 140.189 70.8426C140.697 70.403 141.386 70.1564 142.104 70.1564C143.91 70.1564 144.298 71.0494 144.298 71.0494L145.588 70.3806C145.558 70.385 145.434 71.4921 144.789 71.7144Z" fill="#DD16D5"/>
<path id="bird7" opacity="0.3" d="M188.757 101.19L190.047 100.968C190.047 100.968 188.963 102.016 188.757 102.083C188.738 102.305 188.738 102.529 188.757 102.752C186.28 111.945 177.146 107.883 177.146 107.883C180.476 107.95 180.759 106.768 180.759 106.768C178.824 106.524 178.436 105.429 178.436 105.429C178.609 105.508 178.811 105.529 179.001 105.488C179.192 105.447 179.359 105.347 179.469 105.206C177.38 104.737 177.662 102.984 177.662 102.984C178.035 103.217 178.47 103.362 178.927 103.408C178.693 103.164 176.733 101.133 177.92 100.085C177.92 100.085 179.363 102.307 183.158 102.509L183.416 102.465C183.372 102.304 183.354 102.138 183.364 101.974C183.364 101.352 183.65 100.757 184.158 100.317C184.666 99.8785 185.355 99.6319 186.072 99.6319C187.878 99.6319 188.267 100.525 188.267 100.525L189.557 99.8561C189.527 99.8604 189.402 100.968 188.757 101.19Z" fill="#DD16D5"/>
<path id="bird8" opacity="0.3" d="M195.097 50.9662L196.387 50.744C196.387 50.744 195.314 51.7967 195.097 51.8573C195.078 52.0799 195.078 52.3034 195.097 52.5261C192.62 61.7191 183.486 57.658 183.486 57.658C186.816 57.7247 187.098 56.5427 187.098 56.5427C185.163 56.2982 184.776 55.2032 184.776 55.2032C184.949 55.2827 185.151 55.304 185.341 55.263C185.532 55.222 185.699 55.1215 185.808 54.9809C183.72 54.5121 184.002 52.7584 184.002 52.7584C184.375 52.9911 184.81 53.1372 185.266 53.1827C185.032 52.9382 183.073 50.9077 184.26 49.859C184.26 49.859 185.703 52.0816 189.498 52.2836L189.756 52.2391C189.712 52.0784 189.694 51.9131 189.704 51.7482C189.704 51.1271 189.989 50.5315 190.497 50.0923C191.005 49.6532 191.694 49.4064 192.412 49.4064C194.219 49.4064 194.607 50.2995 194.607 50.2995L195.897 49.6307C195.882 49.6267 195.751 50.742 195.097 50.9662Z" fill="#00ACED"/>
<path id="bird9" d="M170.748 88.3187L173.431 87.8536C173.431 87.8536 171.176 90.0361 170.748 90.1731C170.708 90.6364 170.708 91.1022 170.748 91.5655C165.596 110.685 146.595 102.24 146.595 102.24C153.519 102.379 154.11 99.9202 154.11 99.9202C150.084 99.409 149.28 97.1355 149.28 97.1355C149.642 97.3005 150.061 97.3441 150.457 97.2582C150.853 97.1729 151.199 96.9636 151.428 96.671C147.081 95.6971 147.67 92.0238 147.67 92.0238C148.423 92.5817 149.603 92.8121 150.299 92.9049C149.816 92.3937 145.738 88.1711 148.196 85.9911C148.196 85.9911 151.201 90.6383 159.092 91.0424L159.63 90.949C159.539 90.6152 159.503 90.2715 159.522 89.929C159.522 89.2889 159.668 88.655 159.951 88.0634C160.234 87.4725 160.65 86.9351 161.173 86.4824C161.696 86.0297 162.317 85.671 163.002 85.4256C163.685 85.1809 164.419 85.0551 165.159 85.0558C168.916 85.0558 169.72 86.912 169.72 86.912L172.412 85.5384C172.359 85.5384 172.09 87.856 170.748 88.3187Z" fill="#E0900F"/>
<path id="bird10" d="M151.755 30.8849L153.035 30.6627C153.035 30.6627 151.951 31.7113 151.745 31.7779C151.726 32.0005 151.726 32.2241 151.745 32.4467C149.269 41.6398 140.134 37.5787 140.134 37.5787C143.464 37.6454 143.747 36.4634 143.747 36.4634C141.812 36.219 141.424 35.1238 141.424 35.1238C141.598 35.2034 141.799 35.2247 141.989 35.1837C142.18 35.1427 142.347 35.0422 142.457 34.9016C140.368 34.4329 140.651 32.6791 140.651 32.6791C141.023 32.9118 141.459 33.0579 141.914 33.1034C141.681 32.8589 139.72 30.8283 140.907 29.7797C140.907 29.7797 142.352 32.0022 146.147 32.2043L146.404 32.1598C146.36 31.9991 146.342 31.8338 146.352 31.6688C146.351 31.3608 146.421 31.0557 146.557 30.771C146.693 30.4863 146.893 30.2276 147.145 30.0097C147.397 29.7918 147.696 29.619 148.024 29.5012C148.354 29.3833 148.706 29.3228 149.063 29.3231C150.869 29.3231 151.257 30.2161 151.257 30.2161L152.547 29.5474C152.531 29.5474 152.402 30.6627 151.755 30.8849Z" fill="#E0900F"/>
<path id="bird11" d="M112.275 55.6517L113.565 55.4294C113.565 55.4294 112.481 56.4781 112.275 56.5448C112.256 56.7673 112.256 56.9909 112.275 57.2135C109.798 66.4065 100.664 62.3453 100.664 62.3453C103.994 62.4119 104.276 61.2302 104.276 61.2302C102.341 60.9857 101.954 59.8906 101.954 59.8906C102.127 59.9702 102.328 59.9915 102.519 59.9504C102.71 59.9094 102.876 59.8089 102.986 59.6683C100.898 59.1996 101.18 57.4459 101.18 57.4459C101.552 57.6786 101.988 57.8246 102.444 57.8702C102.21 57.6257 100.25 55.5951 101.437 54.5465C101.437 54.5465 102.881 56.769 106.676 56.9711L106.933 56.9266C106.889 56.7659 106.872 56.6005 106.882 56.4356C106.882 55.8146 107.167 55.219 107.675 54.7798C108.183 54.3406 108.872 54.0939 109.59 54.0939C111.396 54.0939 111.784 54.9869 111.784 54.9869L113.074 54.3182C113.049 54.3121 112.92 55.4335 112.275 55.6517Z" fill="#E0900F"/>
<path id="bird12" opacity="0.3" d="M101.438 39.587L102.728 39.3648C102.728 39.3648 101.643 40.4134 101.438 40.4801C101.418 40.7027 101.418 40.9262 101.438 41.1488C98.9605 50.342 89.8262 46.2808 89.8262 46.2808C93.1556 46.3475 93.4387 45.1655 93.4387 45.1655C91.5038 44.921 91.1154 43.826 91.1154 43.826C91.2895 43.9055 91.4909 43.9268 91.6817 43.8858C91.8717 43.8448 92.0382 43.7443 92.1487 43.6037C90.0593 43.1349 90.3425 41.3812 90.3425 41.3812C90.7149 41.6139 91.1502 41.76 91.6067 41.8055C91.3728 41.561 89.4121 39.5305 90.5991 38.4818C90.5991 38.4818 92.0435 40.7044 95.8385 40.9064L96.0952 40.8619C96.0513 40.7012 96.0346 40.5359 96.0437 40.371C96.0437 39.7499 96.3291 39.1543 96.8371 38.7151C97.345 38.276 98.0339 38.0293 98.7523 38.0293C100.559 38.0293 100.946 38.9223 100.946 38.9223L102.236 38.2535C102.21 38.2474 102.094 39.3648 101.438 39.587Z" fill="#E0900F"/>
<path id="bird13" d="M146.853 107.636L148.143 107.414C148.143 107.414 147.058 108.462 146.853 108.529C146.833 108.752 146.833 108.976 146.853 109.198C144.376 118.391 135.241 114.33 135.241 114.33C138.571 114.397 138.854 113.215 138.854 113.215C136.919 112.97 136.531 111.875 136.531 111.875C136.705 111.955 136.906 111.976 137.097 111.935C137.287 111.894 137.453 111.793 137.564 111.653C135.474 111.184 135.758 109.43 135.758 109.43C136.13 109.663 136.565 109.809 137.022 109.855C136.788 109.61 134.827 107.579 136.014 106.531C136.014 106.531 137.459 108.753 141.254 108.956L141.511 108.911C141.467 108.75 141.45 108.585 141.459 108.42C141.459 107.799 141.745 107.203 142.252 106.764C142.76 106.325 143.449 106.078 144.167 106.078C145.974 106.078 146.362 106.972 146.362 106.972L147.652 106.303C147.629 106.299 147.498 107.414 146.853 107.636Z" fill="#535461"/>
<path id="bird14" d="M222.151 59.2117L224.775 58.7571C224.775 58.7571 222.564 60.8968 222.143 61.0322C222.104 61.4868 222.104 61.9434 222.143 62.3982C217.089 81.1501 198.456 72.8658 198.456 72.8658C205.253 73.0115 205.833 70.5867 205.833 70.5867C201.883 70.086 201.096 67.8555 201.096 67.8555C201.45 68.0143 201.86 68.056 202.248 67.9726C202.634 67.8885 202.974 67.6855 203.199 67.401C198.935 66.4451 199.514 62.8484 199.514 62.8484C200.25 63.3939 201.41 63.6224 202.085 63.7133C201.617 63.2121 197.61 59.0662 200.03 56.9306C200.03 56.9306 202.98 61.4827 210.716 61.8909L211.243 61.8C211.152 61.4692 211.116 61.1291 211.137 60.7897C211.137 59.5224 211.72 58.307 212.756 57.4109C213.792 56.5147 215.198 56.0113 216.664 56.0113C220.349 56.0113 221.139 57.8298 221.139 57.8298L223.77 56.4639C223.73 56.4801 223.466 58.7571 222.151 59.2117Z" fill="#535461"/>
<path id="bird15" d="M117.642 77.5068L120.274 77.0522C120.274 77.0522 118.063 79.1918 117.642 79.3275C117.603 79.7821 117.603 80.2385 117.642 80.6931C112.588 99.4451 93.9546 91.1613 93.9546 91.1613C100.745 91.2989 101.325 88.886 101.325 88.886C97.3756 88.3853 96.5883 86.1548 96.5883 86.1548C96.9426 86.3136 97.3522 86.3553 97.739 86.2719C98.1266 86.1878 98.465 85.9848 98.6913 85.7002C94.4262 84.7444 95.0061 81.1477 95.0061 81.1477C95.7419 81.6932 96.901 81.9217 97.5762 82.0126C97.1091 81.5113 93.1014 77.3654 95.5224 75.2302C95.5224 75.2302 98.4718 79.7821 106.209 80.19L106.734 80.0991C106.644 79.7684 106.608 79.4284 106.629 79.089C106.629 77.8218 107.212 76.6063 108.248 75.7103C109.285 74.8142 110.69 74.3104 112.156 74.3104C115.84 74.3104 116.631 76.1293 116.631 76.1293L119.262 74.7631C119.222 74.7756 118.958 77.0522 117.642 77.5068Z" fill="#535461"/>
</g>
</g>
</g>
<defs>
<linearGradient id="paint0_linear" x1="162.893" y1="16.6558" x2="162.893" y2="203.001" gradientUnits="userSpaceOnUse">
<stop stop-color="#9208FE" stop-opacity="0.45"/>
<stop offset="0.979248" stop-color="#18E5E5"/>
</linearGradient>
</defs>
</svg>
